<svg xmlns="http://www.w3.org/2000/svg" width="194" height="194" viewBox="0 0 194 194"><path d="M97,194A97,97,0,1,0,0,97,97,97,0,0,0,97,194Z" fill="#06213D"/><path d="M89.062,125.535H86a16.147,16.147,0,0,0,5.178-12.047c0-8.666-6.446-15.64-14.372-15.64s-14.372,7.08-14.372,15.64a16.147,16.147,0,0,0,5.178,12.047H64.544c-2.536,0-4.544,2.537-4.544,5.813v18.494a1.852,1.852,0,0,0,1.8,1.8H91.809a1.852,1.852,0,0,0,1.8-1.8V131.348C93.606,128.072,91.6,125.535,89.062,125.535ZM66.024,113.382c0-6.658,4.861-12.047,10.779-12.047s10.779,5.389,10.779,12.047S82.721,125.43,76.8,125.43C70.885,125.535,66.024,120.146,66.024,113.382Zm23.989,34.663H63.593v-16.7c0-1.48.74-2.22.951-2.22H89.062c.211,0,.951.74.951,2.22v16.7Z" fill="#ffc871"/><path d="M146.868,67.729a54.036,54.036,0,0,0-16.591-16.592A53.313,53.313,0,0,0,103.223,43H102.06a52.791,52.791,0,0,0-40.369,18.7l2.748,2.325A46.8,46.8,0,0,1,73,56.1V81.467a6.42,6.42,0,1,0,8.243,6.13,6.37,6.37,0,0,0-4.649-6.13V53.779A48.934,48.934,0,0,1,101.32,46.7V62.656a6.412,6.412,0,0,0,1.8,12.576,6.369,6.369,0,0,0,6.129-4.65h18.177V95.311h-13a6.42,6.42,0,1,0-6.13,8.243,6.371,6.371,0,0,0,6.13-4.65h13V121.52h-13.21a6.54,6.54,0,0,0-6.023-4.228,6.447,6.447,0,1,0,0,12.893,6.568,6.568,0,0,0,6.34-5.072h12.893v13.21a49.626,49.626,0,0,1-24.412,7.08h-1.056V149h1.162a53.006,53.006,0,0,0,27.054-8.137,54.025,54.025,0,0,0,16.591-16.592A53.311,53.311,0,0,0,154.9,97.213V96.051A52.216,52.216,0,0,0,146.868,67.729ZM77.648,87.491A2.853,2.853,0,1,1,74.8,84.638,2.841,2.841,0,0,1,77.648,87.491ZM108.3,99.855A2.853,2.853,0,1,1,111.149,97,2.841,2.841,0,0,1,108.3,99.855Zm0,26.631a2.853,2.853,0,1,1,2.854-2.853A2.841,2.841,0,0,1,108.3,126.486Zm22.827-56.009h13.21a48.934,48.934,0,0,1,7.08,24.728h-20.29ZM141.9,66.883H131.016V56A46.25,46.25,0,0,1,141.9,66.883Zm-38.784,4.65a2.853,2.853,0,1,1,2.853-2.853A2.841,2.841,0,0,1,103.117,71.533Zm6.129-4.65a6.18,6.18,0,0,0-4.332-4.332V46.7a48.868,48.868,0,0,1,22.615,6.975V66.883Zm21.876,68.9V124.9h10.885A48.352,48.352,0,0,1,131.122,135.786Zm13.21-14.372h-13.21V98.8h20.185A48.891,48.891,0,0,1,144.332,121.414Z" fill="#fff"/></svg>