<svg xmlns="http://www.w3.org/2000/svg" width="100" height="100" viewBox="0 0 100 100"><path d="M54.40977,46.15c-7.5-7.5-16.3-12.2-22.9-12.2a9.63176,9.63176,0,0,0-6.8,2.5,8.349,8.349,0,0,0-2.3,4.8L4.10972,94.05a1.86606,1.86606,0,0,0,.4,1.9,1.65585,1.65585,0,0,0,1.3.5,1.26812,1.26812,0,0,0,.6-.1l52.7-18.2a8.44956,8.44956,0,0,0,4.9-2.4c2.9-2.9,3.3-7.6,1.2-13.5A46.49,46.49,0,0,0,54.40977,46.15Zm-30.9,3.8c1.9,5.4,5.8,11.1,10.9,16.2,5.3,5.3,11.1,9.1,16.5,11l-15.7,5.4a47.2095,47.2095,0,0,1-9.6-7.5,47.21031,47.21031,0,0,1-7.5-9.6l5.4-15.7C23.40977,49.75,23.50975,49.85,23.50975,49.95Zm1.6,36.1a52.69109,52.69109,0,0,1-5.7-4.9,43.50454,43.50454,0,0,1-4.9-5.7l1.9-5.5a51.2738,51.2738,0,0,0,6.4,7.7,56.80247,56.80247,0,0,0,7.7,6.4Zm-12-6.4c1.2,1.4,2.4,2.8,3.7,4.1a47.22391,47.22391,0,0,0,4.1,3.7l-12,4.1Zm48.30005-6.5a5.20187,5.20187,0,0,1-2.9,1.3h0c-.4,0-.8.1-1.2.1h0c-5.6,0-13.5-4.4-20.3-11.1-4.7-4.7-8.3-10-10-14.8-1.6-4.3-1.4-7.8.3-9.6a5.64262,5.64262,0,0,1,4.1-1.4c5.6,0,13.5,4.4,20.3,11.1,4.7,4.7,8.3,10,10,14.8C63.30973,67.95,63.20976,71.45,61.40977,73.15Z" fill="#ffb72f"/><path d="M57.30973,67.25h0c-2.4,0-8.6-2.4-15.1-8.9a1.90919,1.90919,0,0,0-2.7,2.7c5.9,5.9,13.2,10,17.7,10h.1a1.81483,1.81483,0,0,0,1.8-1.9A1.75972,1.75972,0,0,0,57.30973,67.25Z" fill="#ffb72f"/><path d="M95.40977,38.85a1.99724,1.99724,0,0,0-2.7,0c-4,4-7.3,3.9-11.1,3.7-4-.2-8.5-.4-13.6,4.6a1.99719,1.99719,0,0,0,0,2.7,1.65585,1.65585,0,0,0,1.3.5,1.901,1.901,0,0,0,1.3-.5c3.9-3.9,7-3.7,10.7-3.5,4.1.2,8.7.5,13.9-4.8A1.69854,1.69854,0,0,0,95.40977,38.85Z" fill="#ffb72f"/><path d="M38.50975,30.65a1.89873,1.89873,0,0,0,1.9-1.9c0-5.7,2.4-7.9,5.2-10.4,3-2.7,6.3-5.7,6.3-12.9a1.89871,1.89871,0,0,0-1.9-1.9,1.83875,1.83875,0,0,0-1.9,1.9c0,5.5-2.4,7.6-5.1,10.1-3,2.7-6.5,5.8-6.5,13.2A2.13817,2.13817,0,0,0,38.50975,30.65Z" fill="#ffb72f"/><path d="M76.60972,30.45h0a6.83383,6.83383,0,0,0,4.7-1.9,6.51927,6.51927,0,0,0,0-9.3,6.65479,6.65479,0,0,0-4.7-1.9,6.83385,6.83385,0,0,0-4.7,1.9,6.65471,6.65471,0,0,0-1.9,4.7,6.83381,6.83381,0,0,0,1.9,4.7A7.43428,7.43428,0,0,0,76.60972,30.45Zm-2-8.6a2.9,2.9,0,0,1,4,0,2.83678,2.83678,0,0,1,0,4,2.79215,2.79215,0,0,1-2,.8h0a2.82872,2.82872,0,0,1-2-4.8Z" fill="#68e5c6"/><path d="M48.50975,28.75a2.18025,2.18025,0,0,0-.5.4,2.50713,2.50713,0,0,0-.4.7c0,.2-.1.3-.1.5v.3a1.42078,1.42078,0,0,0,.2.6,1.38028,1.38028,0,0,0,.3.4l9.3,9.3c.1.1.3.2.4.3a1.42147,1.42147,0,0,0,.6.2h.3a.90151.90151,0,0,0,.5-.1,1.61191,1.61191,0,0,0,.7-.4.99853.99853,0,0,0,.4-.5c.1-.2.2-.3.2-.5l3.4-12.7c0-.2.1-.3.1-.5h0a1.70209,1.70209,0,0,0-.1-.7,1.53213,1.53213,0,0,0-1.1-1.1,1.48287,1.48287,0,0,0-.7-.1h0a.90149.90149,0,0,0-.5.1l-12.5,3.6C48.80973,28.55,48.70976,28.65,48.50975,28.75Zm11.1.9-1.7,6.5-4.7-4.7Z" fill="#ff6a6a"/><path d="M86.80973,53.05h-8a1.89873,1.89873,0,0,0-1.9,1.9v8a1.89871,1.89871,0,0,0,1.9,1.9h8a1.89874,1.89874,0,0,0,1.9-1.9v-8A2.04278,2.04278,0,0,0,86.80973,53.05Zm-1.9,8.1h-4.3v-4.3h4.3Z" fill="#3a62db"/></svg>