<svg xmlns="http://www.w3.org/2000/svg" width="195" height="194" viewBox="0 0 195 194"><path d="M97.7,194A97,97,0,1,0,.7,97,97,97,0,0,0,97.7,194Z" fill="#06213D"/><path d="M124.1,74.4h-8.9c-1.8,0-3.2-.6-3.2-2.6,0-2.2,1.5-2.8,3.3-2.8h17.6c1.8,0,3.2.7,3.3,2.6.1,2.1-1.4,2.8-3.3,2.8Z" fill="#b792d9"/><path d="M123.2,126.2h-7.9c-1.9,0-3.4-.8-3.3-2.8,0-1.9,1.5-2.6,3.3-2.6H131c1.9,0,3.4.6,3.3,2.8-.1,2.1-1.7,2.7-3.5,2.7C128.3,126.2,125.8,126.2,123.2,126.2Z" fill="#b792d9"/><path d="M120,131.9c.2-2,1.2-3.1,3.2-3.1a2.84,2.84,0,0,1,3.1,3.1,2.966,2.966,0,0,1-3.2,3.1C121.3,135,120.2,133.8,120,131.9Z" fill="#b792d9"/><path d="M123.1,118.1a3,3,0,0,1-3-3.2,2.87,2.87,0,0,1,3.2-3.1,2.917,2.917,0,0,1,3.1,3.2C126.3,116.9,125.1,117.9,123.1,118.1Z" fill="#b792d9"/><path d="M74.6,123.4c2,1.8,3.5,3.1,5,4.5,1.3,1.3,1.5,2.8,0,4.1-1.4,1.2-2.7.8-3.9-.4-1.4-1.5-2.7-3-4.6-5-1.6,1.8-2.8,3.4-4.2,4.9-1.2,1.3-2.7,1.9-4.2.5-1.5-1.5-1-3,.3-4.4,1.4-1.4,2.8-2.7,4.6-4.4-1.6-1.5-3.1-2.8-4.6-4.2-1.4-1.3-1.9-2.9-.4-4.3,1.4-1.4,2.9-.8,4.1.5,1.3,1.4,2.6,2.9,4.2,4.7,1.7-1.8,3-3.3,4.4-4.7,1.2-1.3,2.7-1.8,4.2-.4,1.5,1.5,1,3-.4,4.3A38.176,38.176,0,0,1,74.6,123.4Z" fill="#b792d9"/><path d="M73.9,73.3v6.3c0,1.7-.7,3-2.5,3-2,.1-2.8-1.2-2.8-3V73.3H62.7c-1.9,0-3.5-.6-3.5-2.7s1.5-2.8,3.4-2.8h6V61.6c0-1.8.8-3.1,2.7-3.1,2,0,2.7,1.3,2.6,3.2v6.2h5.8c1.9,0,3.6.4,3.6,2.8s-1.8,2.7-3.7,2.7C77.8,73.3,76,73.3,73.9,73.3Z" fill="#b792d9"/><path d="M97.6,152.5H46.5c-3.7,0-4.4-.7-4.4-4.5V45.9c0-3.7.8-4.5,4.5-4.5H148.7c3.7,0,4.5.9,4.5,4.5V148.3c0,3.6-.7,4.3-4.3,4.3C131.8,152.5,114.7,152.5,97.6,152.5Zm49.9-58.4V46.8H103.1c-2.2,0-2.8.7-2.8,2.8.1,13.9,0,27.9.1,41.8a24.519,24.519,0,0,0,.2,2.7Zm-.1,53a2.6,2.6,0,0,0,.3-.7V101.7c0-1.6-.8-1.8-2.1-1.8H102.4c-1.6,0-2.2.6-2.1,2.1v43.2c0,1.4.5,2,2,2C117.3,147,132.3,147.1,147.4,147.1Zm-99.7-.2h47V100a10.4,10.4,0,0,0-1.5-.2H49.8c-2,0-2.3.9-2.2,2.6V145A6.369,6.369,0,0,0,47.7,146.9ZM94.8,47H47.7V94.1H94.8Z" fill="#fff"/></svg>