<svg xmlns="http://www.w3.org/2000/svg" width="195" height="194" viewBox="0 0 195 194"><path d="M97.5,194A97,97,0,1,0,.5,97,97,97,0,0,0,97.5,194Z" fill="#06213D"/><path d="M106.2,38.7H86.7l-1.9,7.6a45.077,45.077,0,0,0-12.2,5.1l-6.7-4L52.2,61.2l4,6.7a48.485,48.485,0,0,0-5.1,12.2L43.5,82v19.5l7.6,1.9a45.077,45.077,0,0,0,5.1,12.2l-4,6.7,13.7,13.8,6.7-4a48.485,48.485,0,0,0,12.2,5.1l1.9,7.6h19.5l1.9-7.6a46.473,46.473,0,0,0,12.8-5.4l-2.8-3.1a43.943,43.943,0,0,1-12.1,4.9l-1.2.3-1.7,6.9H90l-1.7-6.9-1.2-.3a41.525,41.525,0,0,1-13.2-5.5l-1.1-.7-6.1,3.7-9.3-9.3,3.6-6.1-.7-1.1a42.5,42.5,0,0,1-5.5-13.2l-.3-1.2-6.9-1.7V85.4l6.9-1.7.3-1.2a41.525,41.525,0,0,1,5.5-13.2l.7-1.1-3.7-6.1,9.3-9.3,6.1,3.7,1.1-.7A42.5,42.5,0,0,1,87,50.3l1.2-.3,1.7-6.9H103l1.7,6.9,1.2.3a41.525,41.525,0,0,1,13.2,5.5l1.1.7,6.1-3.7,9.3,9.3-3.7,6.1.7,1.1a42.5,42.5,0,0,1,5.5,13.2l.3,1.2,6.9,1.7V98.5l-6.9,1.7-.3,1.2a39.7,39.7,0,0,1-3.3,9.3l3.1,2.9a45.112,45.112,0,0,0,3.9-10l7.6-1.9V82.2l-7.6-1.9a45.077,45.077,0,0,0-5.1-12.2l4-6.7L126.9,47.6l-6.7,4A45.077,45.077,0,0,0,108,46.5Z" fill="#4cb9ed"/><path d="M96.5,55a36.6,36.6,0,1,0,17.4,68.8l-2.8-3.1a32.062,32.062,0,0,1-14.6,3.5A32.5,32.5,0,1,1,129,91.7a32.208,32.208,0,0,1-2,11.2l3.2,3A36.618,36.618,0,0,0,96.5,55Z" fill="#4cb9ed"/><path d="M114.1,83.1a18.058,18.058,0,0,1,3.5,18.1l-.4,1.3-.7,2,1.6,1.3,23.6,19.4a6.712,6.712,0,0,1,2.2,4.6,6.257,6.257,0,0,1-1.9,4.8,6.42,6.42,0,0,1-4.6,1.9h-.2a6.322,6.322,0,0,1-4.6-2.2l-18.7-22.9-1.5-1.9-2.2,1.1-1.4.7a18.782,18.782,0,0,1-8.3,2,17.646,17.646,0,0,1-12-4.6l.9-.3,17-5.7,1.4-.5.5-1.4,5.7-17Zm-8.6-8.6,5.4,8.6-5.7,17-17,5.7-7.8-5.2c.3,5.1,1.2,6,4.9,9.7a21.079,21.079,0,0,0,24.7,3.8l1.4-.7,18.8,22.9a9.526,9.526,0,0,0,6.8,3.2h.3a9.3,9.3,0,0,0,6.7-2.8,9.578,9.578,0,0,0,2.8-7,9.349,9.349,0,0,0-3.2-6.8l-23.7-19.4.4-1.3a21.068,21.068,0,0,0-5-22C111.7,76.5,110.6,74.8,105.5,74.5Z" fill="#fff"/></svg>