<?xml version="1.0" encoding="UTF-8"?>
<svg xmlns="http://www.w3.org/2000/svg" xmlns:xlink="http://www.w3.org/1999/xlink" width="608px" height="340px" viewBox="0 0 608 340">
  <!-- Generator: Sketch 53.2 (72643) - https://sketchapp.com -->
  <title>course1-banner-test</title>
  <desc>Created with Sketch.</desc>
  <defs>
    <polygon id="path-1" points="0 0 339 0 339 339 0 339"></polygon>
    <path d="M103.949,16.164 C75.292,18.61 71.981,14.371 48.914,6.002 C48.914,6.002 36.702,21.436 27.529,46.489 C18.357,71.597 5.71,120.888 5.71,118.443 C3.973,120.29 2.942,121.649 2.617,122.41 C0.446,127.573 0.446,134.529 2.617,143.278 L133.692,127.464 L115.89,32.305 C115.456,21.055 117.681,21.11 124.248,21.164 C128.265,21.164 133.964,21.219 141.671,18.664 C141.725,18.447 130.599,0.241 130.653,0.078 C115.619,7.469 132.607,13.719 103.949,16.164 Z" id="path-3"></path>
    <path d="M11.923,0.117 C11.543,0.117 11.108,0.172 10.729,0.226 C3.347,1.258 -1.266,11.584 0.362,23.323 C1.99,35.061 9.317,43.702 16.645,42.67 C24.026,41.637 28.64,31.311 27.011,19.573 C25.492,8.486 18.87,0.117 11.923,0.117 L11.923,0.117 Z" id="path-5"></path>
    <path d="M69.284,1.546 C37.153,6.111 12.131,29.099 3.447,58.391 C0.245,69.152 -0.732,80.782 0.896,92.629 C2.47,103.661 6.161,113.824 11.534,122.845 C20.381,137.627 33.679,149.094 49.365,155.724 C62.282,161.213 76.774,163.332 91.7,161.267 C106.843,159.148 120.466,152.898 131.484,143.822 C152.434,126.595 164.158,99.15 160.087,70.293 C154.442,29.914 120.032,0.785 80.573,0.785 C76.828,0.785 73.083,1.057 69.284,1.546 Z" id="path-7"></path>
    <path d="M7.286,0.059 C7.123,0.059 6.96,0.059 6.797,0.113 C2.021,0.765 -0.584,10.819 1.098,22.558 C2.727,34.296 7.991,43.263 12.768,42.557 C17.544,41.905 20.149,31.851 18.467,20.112 C16.838,8.754 11.899,0.059 7.286,0.059 L7.286,0.059 Z" id="path-9"></path>
    <path d="M3.987,0.504 L3.661,0.504 C0.839,0.884 -0.681,6.808 0.296,13.71 C1.273,20.612 4.313,25.883 7.135,25.448 C9.957,25.068 11.477,19.144 10.5,12.243 C9.632,5.612 6.755,0.504 3.987,0.504 Z" id="path-11"></path>
    <path d="M7.973,0.982 C6.182,1.363 5.097,1.58 4.717,1.634 C4.337,1.689 3.36,1.743 1.677,1.852 C0.917,1.906 0.32,2.558 0.375,3.319 C0.375,3.808 0.7,4.243 1.134,4.515 L3.034,5.384 C4.717,6.254 6.725,5.928 8.082,4.623 L9.33,3.428 C9.873,2.884 9.873,1.96 9.33,1.417 C9.059,1.145 8.679,0.982 8.299,0.982 C8.19,0.928 8.082,0.928 7.973,0.982 L7.973,0.982 Z" id="path-13"></path>
    <path d="M22.945,2.591 C27.015,1.015 31.195,0.309 35.265,0.309 C49.106,0.309 62.186,8.732 67.451,22.482 L85.742,70.197 C92.581,87.968 83.679,107.967 65.931,114.76 C48.183,121.608 28.21,112.695 21.425,94.924 L3.134,47.209 C-3.65,29.383 5.197,9.384 22.945,2.591 L22.945,2.591 Z" id="path-15"></path>
    <path d="M0.023,35.774 C0.023,21.59 8.653,8.221 22.656,2.786 C26.836,1.21 31.069,0.449 35.303,0.449 C49.469,0.449 62.875,9.09 68.248,23.111 L86.539,70.827 C88.113,74.957 88.873,79.196 88.873,83.38 L88.873,83.652 C88.819,97.782 80.243,111.151 66.24,116.531 C62.115,118.107 57.881,118.868 53.702,118.868 L53.431,118.868 C39.319,118.814 25.967,110.227 20.594,96.206 L2.303,48.491 C0.783,44.306 0.023,40.013 0.023,35.774 Z" id="path-17"></path>
    <path d="M136.316,2.283 C140.387,0.706 144.566,0 148.637,0 C162.477,0 175.558,8.424 180.822,22.173 C187.661,39.944 178.76,59.943 161.012,66.736 L57.997,106.354 L15.227,106.354 C9.854,102.55 5.512,97.17 2.961,90.54 C-3.878,72.769 5.023,52.769 22.772,45.976 L136.316,2.283 L136.316,2.283 Z" id="path-19"></path>
    <path d="M184.972,35.586 C184.918,49.77 176.342,63.139 162.339,68.519 L61.278,107.376 L14.872,107.376 C9.77,103.518 5.699,98.246 3.203,91.833 C-3.799,73.628 5.319,53.194 23.502,46.183 L137.046,2.544 C141.226,0.968 145.459,0.207 149.693,0.207 C163.859,0.207 177.265,8.848 182.638,22.869 C184.212,26.999 184.972,31.238 184.972,35.423 L184.972,35.586 L184.972,35.586 Z" id="path-21"></path>
    <path d="M0.047,42.639 C0.047,65.736 18.772,84.485 41.839,84.485 C64.906,84.485 83.631,65.736 83.631,42.639 C83.631,19.542 64.906,0.793 41.839,0.793 C18.772,0.847 0.047,19.542 0.047,42.639 Z" id="path-23"></path>
  </defs>
  <g id="Page-1" stroke="none" stroke-width="1" fill="none" fill-rule="evenodd">
    <g id="course1-banner-test">
      <polygon id="Path" fill="#4844A3" fill-rule="nonzero" points="0 0 608 0 608 340 0 340"></polygon>
      <g id="Clipped" transform="translate(134.000000, 1.000000)">
        <mask id="mask-2" fill="white">
          <use xlink:href="#path-1"></use>
        </mask>
        <g id="Path"></g>
        <g id="Group" mask="url(#mask-2)">
          <g transform="translate(82.000000, 50.000000)">
            <g id="Clipped" stroke="none" stroke-width="1" fill="none" fill-rule="evenodd" transform="translate(3.000000, 150.000000)">
              <mask id="mask-4" fill="white">
                <use xlink:href="#path-3"></use>
              </mask>
              <g id="Path"></g>
              <polygon id="Path" fill="#9A9AF0" mask="url(#mask-4)" points="144.006 -2.902 -4.004 -0.294 -1.453 146.113 146.557 143.504 144.006 -2.902"></polygon>
            </g>
            <g id="Clipped" stroke="none" stroke-width="1" fill="none" fill-rule="evenodd" transform="translate(0.000000, 71.000000)">
              <mask id="mask-6" fill="white">
                <use xlink:href="#path-5"></use>
              </mask>
              <g id="Path"></g>
              <polygon id="Path" fill="#B9D3EB" mask="url(#mask-6)" points="-5.672 -0.2 26.351 -4.711 33.081 43.113 1.058 47.624"></polygon>
            </g>
            <g id="Clipped" stroke="none" stroke-width="1" fill="none" fill-rule="evenodd" transform="translate(5.000000, 0.000000)">
              <mask id="mask-8" fill="white">
                <use xlink:href="#path-7"></use>
              </mask>
              <g id="Path"></g>
              <polygon id="Path" fill="#9A9AF0" mask="url(#mask-8)" points="-13.379 10.468 151.185 -12.684 174.361 152.309 9.797 175.46"></polygon>
            </g>
            <path d="M13.326,117.967 C22.01,135.249 36.556,148.672 54.033,156.063 C66.95,161.552 81.442,163.671 96.368,161.606 C111.511,159.487 125.134,153.237 136.152,144.161 C157.102,126.934 168.826,99.489 164.755,70.632 C158.568,26.449 117.915,-4.256 73.952,1.939 C36.881,7.156 9.309,36.938 5.293,72.588" id="Path" stroke="#4844A3" stroke-width="3" fill="none"></path>
            <path d="M79.437,72.972 L79.654,78.026 C79.817,81.83 82.965,84.819 86.764,84.711 C90.564,84.548 93.494,81.341 93.332,77.537 C92.789,73.733 92.463,71.831 92.463,71.831 C92.463,71.831 91.269,65.581 86.004,65.799 C80.848,65.962 79.274,69.168 79.437,72.972 L79.437,72.972 Z" id="Path" stroke="none" fill="#4844A3" fill-rule="nonzero"></path>
            <path d="M94.104,71.516 L92.466,71.83 L94.11,71.549 L94.114,71.574 L94.126,71.644 L94.171,71.917 C94.21,72.158 94.269,72.519 94.344,72.998 C94.494,73.957 94.713,75.391 94.985,77.301 L94.997,77.383 L95,77.465 C95.202,82.185 91.563,86.173 86.839,86.376 L86.827,86.376 L86.815,86.377 C82.085,86.512 78.193,82.792 77.992,78.097 L77.774,73.043 C77.684,70.928 78.06,68.72 79.417,66.99 C80.815,65.208 83.019,64.226 85.947,64.132 C89.39,63.993 91.487,66.022 92.626,67.851 C93.193,68.761 93.557,69.664 93.779,70.33 C93.891,70.666 93.97,70.95 94.021,71.155 C94.047,71.258 94.067,71.341 94.08,71.403 L94.096,71.478 L94.101,71.502 L94.103,71.511 L94.103,71.514 L94.104,71.516 L94.104,71.516 Z M92.466,71.83 L94.11,71.549 L94.107,71.533 L94.104,71.517 L92.466,71.83 L92.466,71.83 Z M90.827,72.136 L90.823,72.117 L90.788,71.969 C90.754,71.834 90.698,71.631 90.616,71.384 C90.449,70.885 90.186,70.239 89.796,69.614 C89.023,68.374 87.893,67.389 86.076,67.464 L86.06,67.464 C83.835,67.535 82.677,68.237 82.041,69.048 C81.363,69.913 81.034,71.211 81.106,72.9 L81.323,77.954 C81.447,80.863 83.845,83.119 86.708,83.044 C89.551,82.916 91.753,80.536 91.672,77.685 C91.407,75.834 91.196,74.444 91.05,73.515 C90.976,73.044 90.919,72.691 90.88,72.457 L90.837,72.195 L90.827,72.136 L90.827,72.136 Z" id="Shape" stroke="none" fill="#89FFF6" fill-rule="evenodd"></path>
            <path d="M54.138,75.144 L55.061,80.143 C55.767,83.893 53.324,87.534 49.633,88.241 C45.943,88.947 42.306,86.447 41.601,82.698 C41.275,78.893 41.166,76.937 41.166,76.937 C41.166,76.937 40.895,70.579 46.106,69.6 C51.153,68.622 53.379,71.394 54.138,75.144 Z" id="Path" stroke="none" fill="#4844A3" fill-rule="nonzero"></path>
            <path d="M50.683,71.893 C49.879,71.241 48.6,70.814 46.426,71.236 L46.421,71.237 L46.416,71.238 C44.611,71.576 43.733,72.794 43.263,74.172 C43.026,74.868 42.917,75.555 42.869,76.079 C42.845,76.337 42.837,76.547 42.835,76.687 L42.835,76.863 L42.839,76.929 L42.856,77.196 C42.871,77.435 42.894,77.794 42.928,78.272 C42.994,79.214 43.099,80.615 43.257,82.465 C43.83,85.282 46.581,87.127 49.323,86.602 C52.089,86.072 53.966,83.32 53.426,80.45 L53.425,80.445 L52.505,75.46 C52.164,73.787 51.543,72.59 50.683,71.893 L50.683,71.893 Z M41.17,76.936 C39.504,77.007 39.504,77.006 39.504,77.005 L39.504,77 L39.503,76.991 L39.503,76.966 L39.501,76.889 C39.5,76.827 39.499,76.74 39.501,76.634 C39.504,76.422 39.516,76.128 39.548,75.775 C39.612,75.075 39.761,74.112 40.107,73.096 C40.804,71.051 42.394,68.602 45.796,67.961 C48.667,67.406 51.024,67.877 52.783,69.302 C54.485,70.682 55.356,72.741 55.776,74.811 L55.778,74.825 L56.703,79.834 L56.703,79.837 C57.573,84.466 54.564,88.994 49.95,89.877 C45.336,90.76 40.838,87.644 39.965,83.004 L39.95,82.922 L39.943,82.838 C39.779,80.928 39.67,79.479 39.602,78.506 C39.567,78.02 39.543,77.652 39.528,77.405 L39.511,77.126 L39.506,77.054 L39.505,77.028 L41.17,76.936 L41.17,76.936 Z M41.17,76.936 L39.505,77.028 L39.504,77.017 L39.504,77.007 L41.17,76.936 L41.17,76.936 Z" id="Shape" stroke="none" fill="#89FFF6" fill-rule="evenodd"></path>
            <g id="Clipped" stroke="none" stroke-width="1" fill="none" fill-rule="evenodd" transform="translate(149.000000, 50.000000)">
              <mask id="mask-10" fill="white">
                <use xlink:href="#path-9"></use>
              </mask>
              <g id="Path"></g>
              <polygon id="Path" fill="#B9D3EB" mask="url(#mask-10)" points="-5.031 -1.047 17.765 -4.254 24.495 43.57 1.699 46.776 -5.031 -1.048"></polygon>
            </g>
            <g id="Clipped" stroke="none" stroke-width="1" fill="none" fill-rule="evenodd" transform="translate(158.000000, 58.000000)">
              <mask id="mask-12" fill="white">
                <use xlink:href="#path-11"></use>
              </mask>
              <g id="Path"></g>
              <polygon id="Path" fill="#9A9AF0" mask="url(#mask-12)" points="-4.477 -1.061 11.101 -3.234 15.388 27.09 -0.189 29.264 -4.477 -1.061"></polygon>
            </g>
            <g id="Clipped" stroke="none" stroke-width="1" fill="none" fill-rule="evenodd" transform="translate(65.000000, 103.000000)">
              <mask id="mask-14" fill="white">
                <use xlink:href="#path-13"></use>
              </mask>
              <g id="Path"></g>
              <polygon id="Path" fill="#4844A3" mask="url(#mask-14)" points="11.387 -2.977 -3.051 0.012 -1.043 9.958 13.449 6.969"></polygon>
            </g>
            <g id="Clipped" stroke="none" stroke-width="1" fill="none" fill-rule="evenodd" transform="translate(118.000000, 140.000000)">
              <mask id="mask-16" fill="white">
                <use xlink:href="#path-15"></use>
              </mask>
              <g id="Path"></g>
              <path d="M22.67,1.834 C4.487,8.844 -4.631,29.278 2.371,47.484 L20.661,95.199 C27.663,113.405 48.071,122.535 66.253,115.525 C84.435,108.514 93.554,88.08 86.552,69.874 L68.261,22.105 C61.26,3.899 40.852,-5.177 22.67,1.834 Z" id="Path" fill="#9A9AF0" mask="url(#mask-16)"></path>
            </g>
            <g id="Clipped" stroke="none" stroke-width="1" fill="none" fill-rule="evenodd" transform="translate(118.000000, 139.000000)">
              <mask id="mask-18" fill="white">
                <use xlink:href="#path-17"></use>
              </mask>
              <g id="Path"></g>
              <path d="M22.658,2.842 C4.476,9.852 -4.643,30.286 2.359,48.492 L20.65,96.207 C27.651,114.413 48.059,123.543 66.241,116.532 C84.424,109.522 93.542,89.088 86.54,70.882 L68.249,23.113 C61.248,4.907 40.84,-4.169 22.658,2.842 L22.658,2.842 Z" id="Path" stroke="#4844A3" stroke-width="6" mask="url(#mask-18)"></path>
            </g>
            <g id="Clipped" stroke="none" stroke-width="1" fill="none" fill-rule="evenodd" transform="translate(28.000000, 219.000000)">
              <mask id="mask-20" fill="white">
                <use xlink:href="#path-19"></use>
              </mask>
              <g id="Path"></g>
              <path d="M181.642,21.835 C174.64,3.63 154.233,-5.5 136.05,1.51 L22.506,45.15 C4.323,52.16 -4.795,72.594 2.206,90.8 C9.208,109.006 29.616,118.136 47.798,111.125 L161.343,67.486 C179.525,60.475 188.589,40.041 181.642,21.835 L181.642,21.835 Z" id="Path" fill="#9A9AF0" mask="url(#mask-20)"></path>
            </g>
            <g id="Clipped" stroke="none" stroke-width="1" fill="none" fill-rule="evenodd" transform="translate(27.000000, 218.000000)">
              <mask id="mask-22" fill="white">
                <use xlink:href="#path-21"></use>
              </mask>
              <g id="Path"></g>
              <path d="M182.642,22.851 C175.64,4.645 155.233,-4.485 137.05,2.526 L23.506,46.165 C5.323,53.176 -3.795,73.61 3.206,91.815 C10.208,110.021 30.616,119.151 48.798,112.141 L162.343,68.501 C180.525,61.491 189.589,41.057 182.642,22.851 L182.642,22.851 Z" id="Path" stroke="#4844A3" stroke-width="6" mask="url(#mask-22)"></path>
            </g>
            <g id="Clipped" stroke="none" stroke-width="1" fill="none" fill-rule="evenodd" transform="translate(139.000000, 212.000000)">
              <mask id="mask-24" fill="white">
                <use xlink:href="#path-23"></use>
              </mask>
              <g id="Path"></g>
              <polygon id="Path" fill="#9A9AF0" mask="url(#mask-24)" points="-2.672 87.213 86.34 87.213 86.34 -1.859 -2.672 -1.859"></polygon>
            </g>
            <path d="M180.82,296.493 C157.752,296.493 139.027,277.744 139.027,254.647 C139.027,231.55 157.752,212.801 180.82,212.801 C203.887,212.801 222.612,231.55 222.612,254.647 C222.612,277.798 203.887,296.493 180.82,296.493 L180.82,296.493 Z" id="Path" stroke="#4844A3" stroke-width="3" fill="none"></path>
          </g>
        </g>
      </g>
    </g>
  </g>
</svg>
