<svg xmlns="http://www.w3.org/2000/svg" width="194" height="194" viewBox="0 0 194 194"><path d="M97,194A97,97,0,1,0,0,97,97,97,0,0,0,97,194Z" fill="#06213D"/><path d="M96,145c-9,0-17.9.1-26.9,0a15.878,15.878,0,0,1-14.2-23,11.977,11.977,0,0,1,1.3-2.1c7.5-10.3,15.1-20.5,22.5-30.8a5.078,5.078,0,0,0,1-2.9c.1-8.3,0-16.7.1-25A1.947,1.947,0,0,0,78.4,59a6.033,6.033,0,0,1-3.7-6.9,6.107,6.107,0,0,1,6-5h30.7a6.133,6.133,0,0,1,2.4,11.8,1.947,1.947,0,0,0-1.4,2.2c0,8.3,0,16.6.1,24.8a5.988,5.988,0,0,0,1,3.1c7.4,10.2,14.9,20.3,22.3,30.5,3.9,5.3,4.1,11.1,1.2,16.9a14.754,14.754,0,0,1-13.8,8.5C114.1,145,105.1,145,96,145ZM82.3,56.9V86.8A5.167,5.167,0,0,1,81.2,90c-7.6,10.5-15.2,20.9-22.9,31.3a12.155,12.155,0,0,0-2.4,9c.9,7.2,6.3,12,14,12.1,17.4.1,34.9.1,52.3,0,5.5,0,9.9-2.3,12.4-7.4,2.6-5.2,1.9-10.1-1.6-14.8-7.5-10-14.9-20.2-22.3-30.3a5.455,5.455,0,0,1-1-3.1c-.1-9.4,0-18.8,0-28.2V56.9a2.142,2.142,0,0,1,.6-.1c2.9-.1,4.6-1.5,4.6-3.6,0-2.3-1.8-3.6-4.8-3.6H81.3c-2.5,0-4.1,1.5-4.1,3.6s1.5,3.5,4,3.6A3.42,3.42,0,0,0,82.3,56.9Z" fill="#fff"/><path d="M119.1,114.4c3,4.1,6.1,8,8.8,12.2,2.1,3.3-.7,7.9-4.6,7.9-18.1.1-36.3,0-54.4,0a5.053,5.053,0,0,1-4.6-3,4.5,4.5,0,0,1,.3-5.3c5.2-7.1,10.3-14.2,15.7-21.1.6-.8,2.5-1.1,3.7-1a12.712,12.712,0,0,1,8.2,3.7c1.9,1.8,3.6,3.7,5.5,5.4,6,5.2,12.7,5.9,19.7,2.1A13.135,13.135,0,0,1,119.1,114.4Z" fill="#39d1a6"/><path d="M102.4,95.3a5.062,5.062,0,0,1,5,4.9,5.189,5.189,0,0,1-5,5.2,5.05,5.05,0,0,1,0-10.1Z" fill="#39d1a6"/><path d="M98.8,81.6a4.46,4.46,0,0,1-4.4,4.1,4.376,4.376,0,0,1-4.3-4.5,4.107,4.107,0,0,1,4.4-4A4.419,4.419,0,0,1,98.8,81.6Z" fill="#39d1a6"/><path d="M103.4,65a2.935,2.935,0,0,1-2.9,2.7,2.8,2.8,0,1,1,.1-5.6A2.881,2.881,0,0,1,103.4,65Z" fill="#39d1a6"/></svg>