<svg xmlns="http://www.w3.org/2000/svg" width="194" height="194" viewBox="0 0 194 194"><path d="M97,194A97,97,0,1,0,0,97,97,97,0,0,0,97,194Z" fill="#06213D"/><path d="M123.5,59.3h-8.2v4.1h8.2Z" fill="#4cb9ed"/><path d="M110.7,59.3h-8.2v4.1h8.2Z" fill="#4cb9ed"/><path d="M135.8,59.3h-8.2v4.1h8.2Z" fill="#4cb9ed"/><path d="M85.3,96.6l-9.6,9.7,9.6,9.6,2.9-2.9-6.7-6.7,6.7-6.8Z" fill="#4cb9ed"/><path d="M109.8,99.5l6.7,6.8-6.7,6.7,2.9,2.9,9.6-9.6-9.6-9.7Z" fill="#4cb9ed"/><path d="M101.166,93.267l-8.2,24.569,3.889,1.3,8.2-24.569Z" fill="#4cb9ed"/><path d="M52,47v94h94V47Zm89.9,4.1V71.5H56.1V51.1ZM56.1,136.9V75.6h85.8v61.3Z" fill="#fff"/></svg>