<svg xmlns="http://www.w3.org/2000/svg" width="194" height="194" viewBox="0 0 194 194"><path d="M97,194A97,97,0,1,0,0,97,97,97,0,0,0,97,194Z" fill="#06213D"/><path d="M47.9,104h9.4c4.5,0,9.1-.1,13.6,0a4.892,4.892,0,0,0,5.2-3.4c1-2.2,2.1-4.4,3.2-6.9a18.5,18.5,0,0,1,1,2c3.4,7.1,6.8,14.2,10.2,21.2,1,2,2.2,3.6,4.7,3.5,2.5,0,3.7-1.7,4.6-3.7l9-19.5a17.153,17.153,0,0,0,.9-1.9c2.1,1.9,4,3.8,6,5.6,2.9,2.6,6.8,1.2,7.7-2.5a4.038,4.038,0,0,0-1.5-4.1c-3.3-3.3-6.6-6.6-10-9.8-3-2.8-6.3-2.1-8.1,1.6-2.6,5.6-5.2,11.2-7.8,16.9-.3.6-.5,1.1-1,2-1.6-3.3-3-6.3-4.5-9.3L83.9,81.9c-.9-2-2.2-3.5-4.6-3.4-2.4,0-3.7,1.4-4.6,3.4-1.8,4-3.7,7.9-5.6,11.8-.3.5-.9,1.2-1.4,1.2-8,.1-16,.1-24,.1A34.168,34.168,0,0,1,43,76c2.8-10.8,8.9-19.2,19.3-23.9,9.9-4.4,19.7-4.5,29,1.9,1.7,1.2,3.5,2.4,5.1,3.7,1,.9,1.7.8,2.8,0a35.23,35.23,0,0,1,27.6-7.1c12.1,1.8,22.5,11.8,25.5,24.2,3.4,14.2-.3,26.2-10.8,36.3q-18.6,17.85-37,35.7c-4.6,4.4-8.8,4.4-13.4,0-12.8-12.4-25.6-24.7-38.4-37.1C51.2,108,49.8,106.2,47.9,104Z" fill="#ff6a6a"/></svg>