<svg xmlns="http://www.w3.org/2000/svg" width="194" height="194" viewBox="0 0 194 194"><path d="M97,194A97,97,0,1,0,0,97,97,97,0,0,0,97,194Z" fill="#06213D"/><path d="M56.4,62.7A11.8,11.8,0,1,0,68.2,50.9,11.7,11.7,0,0,0,56.4,62.7Zm18.7,0a6.8,6.8,0,1,1-6.8-6.8A6.807,6.807,0,0,1,75.1,62.7Z" fill="#fff"/><path d="M50.5,106.3a9.362,9.362,0,0,0,4.8,7.3l3.9,28.5a5.737,5.737,0,0,0,5.7,5.1h6.5a5.737,5.737,0,0,0,5.7-5.1L79,124.6l3.8-29.2,4.3,3.5a6.922,6.922,0,0,0,8.7.1l12.9-10.2a7.02,7.02,0,0,0,1.8-9.1,6.947,6.947,0,0,0-9.5-2.3,3.039,3.039,0,0,0-.7.5l-8.7,6.8-8.8-7.2a6.989,6.989,0,0,0-4.4-1.6h-4a3.083,3.083,0,0,0-2.3,1l-4,4.9-3.9-4.9a2.99,2.99,0,0,0-2.3-1.1H58.8A10.84,10.84,0,0,0,48,86.7a6.151,6.151,0,0,0,.1,1.3Zm4-23.4a5.707,5.707,0,0,1,4.4-2H61l4.5,5.6a3.5,3.5,0,0,0,4.9.6l.6-.6,4.5-5.6h3.1a1.746,1.746,0,0,1,1.2.4l10.3,8.6a2.551,2.551,0,0,0,3.1,0l10.3-8.1a1.594,1.594,0,0,1,1.2-.4,1.7,1.7,0,0,1,1.6.9,2.029,2.029,0,0,1-.6,2.6l-13,10.2a2.107,2.107,0,0,1-2.4,0l-7.8-6.4A2.511,2.511,0,0,0,79,89a3.1,3.1,0,0,0-.6,1.3L74,124l-1.9,17.5a.751.751,0,0,1-.7.7H64.9a.684.684,0,0,1-.7-.7l-4.1-29.9a2.375,2.375,0,0,0-1.6-2,4.551,4.551,0,0,1-3-3.8L53,87.6A5.973,5.973,0,0,1,54.5,82.9Z" fill="#fff"/><path d="M85.9,54V72a2.5,2.5,0,0,0,5,0V56.5H141v49.1H88.4a2.5,2.5,0,0,0,0,5h25v16.6H97.8a3.563,3.563,0,0,0-3.2,2L89,139.6a2.506,2.506,0,1,0,4.4,2.4l5.1-9.7h34.8l5.1,9.7a2.506,2.506,0,1,0,4.4-2.4l-5.5-10.4a3.678,3.678,0,0,0-3.2-2H118.4V110.6h25a2.476,2.476,0,0,0,2.5-2.5V54a2.476,2.476,0,0,0-2.5-2.5h-55A2.476,2.476,0,0,0,85.9,54Z" fill="#ff6a6a"/><path d="M110,80l17-13" fill="none" stroke="#fff" stroke-miterlimit="10" stroke-width="3"/></svg>